<svg xmlns="http://www.w3.org/2000/svg" width="200" height="200" focusable="false" role="presentation" viewBox="0 0 200 200"><circle fill="#FF7F00" cx="100" cy="100" r="100"/><g fill="#FFF"><circle cx="100" cy="35.819" r="14.926"/><path d="M164.771 50.73a7.459 7.459 0 0 0-8.814-5.802L100 56.465 44.043 44.928a7.46 7.46 0 0 0-8.815 5.802 7.461 7.461 0 0 0 5.803 8.815l41.805 8.62v45.563l-11.782 56.387a7.46 7.46 0 0 0 5.778 8.83c.515.107 1.028.16 1.535.16a7.467 7.467 0 0 0 7.297-5.938l12.015-57.498c.224-1.188 1.086-2.237 2.323-2.237 1.236 0 2.123 1.049 2.322 2.237l12.016 57.498a7.464 7.464 0 0 0 8.831 5.778 7.458 7.458 0 0 0 5.776-8.83l-11.781-56.391V68.166l41.807-8.62a7.46 7.46 0 0 0 5.798-8.816z"/></g></svg>