<?xml version="1.0" encoding="utf-8"?>
<!-- Generator: Adobe Illustrator 24.0.1, SVG Export Plug-In . SVG Version: 6.00 Build 0)  -->
<svg version="1.0" id="Layer_1" xmlns="http://www.w3.org/2000/svg" xmlns:xlink="http://www.w3.org/1999/xlink" x="0px" y="0px"
	 viewBox="0 0 448.59 413.43" style="enable-background:new 0 0 448.59 413.43;" xml:space="preserve">
<style type="text/css">
	.st0{fill:#FFFFFF;}
	.st1{fill:#FFCF02;}
	.st2{fill:#3C3C3B;}
</style>
<g>
	<path class="st0" d="M240.71,216.65h-32.82c-2.26,0-3.47,2.27-1.96,3.71l16.41,15.7c1.04,1,2.88,1,3.92,0l16.41-15.7
		C244.17,218.92,242.97,216.65,240.71,216.65z"/>
	<path class="st0" d="M159.24,153.51c-4.14,0-8.36,1.16-12.49,3.15c-17.04,8.21-32.32,30.92-32.32,48.01c0,3.18,0.5,6.22,1.22,9.17
		c0.61,2.47,1.44,4.83,2.5,7.08c6.14,13.07,19.32,22.19,34.72,22.19c21.23,0,38.44-17.21,38.44-38.44c0-9.38-2.13-20.45-6.32-29.9
		C179.7,162.84,171.09,153.51,159.24,153.51z M165.37,225.25c-2.46,0-4.69-1.89-6.47-4.93c-0.34-0.58-0.68-1.15-0.99-1.81
		c-1.83-4-2.96-9.44-2.96-15.46c0-8.41,2.22-15.63,5.46-19.4c1.48-1.73,3.16-2.8,4.97-2.8c5.66,0,10.24,9.61,10.4,21.58
		c0,0.21,0.03,0.4,0.03,0.62C175.8,215.31,171.13,225.25,165.37,225.25z"/>
	<path class="st0" d="M207.44,292.58c0,9.31,7.55,16.86,16.86,16.86c9.31,0,16.86-7.55,16.86-16.86v-22.62h-33.71V292.58z"/>
	<path class="st1" d="M97.67,232.82c-4.24,4.24-0.15,15.22,9.15,24.52c9.3,9.3,20.27,13.39,24.52,9.15
		c4.24-4.24,0.15-15.22-9.15-24.52C112.89,232.67,101.91,228.58,97.67,232.82z"/>
	<path class="st0" d="M111.96,102.64C88.07,69.46,64.23,43.17,58.15,47.51c-15.89,11.34-15.11,71.22,7.36,113.56
		C76.61,139.23,92.42,119.06,111.96,102.64z"/>
	<path class="st1" d="M417.61,8.94C409.14,3.01,398.8,0,386.87,0c-26.54,0-62.77,15.96-92.43,39.68
		c-22.71-8.49-46.2-12.79-70.27-12.79c-23.9,0.04-47.44,4.43-70.23,13.07C124.3,16.45,88.13,0.63,61.64,0.63
		c-12.04,0-22.46,3.05-30.97,9.06C-9.61,38.16-7.75,126.72,21.91,180.85c-4.86,16.57-7.3,33.08-7.27,49.26
		c0.2,101.08,94.32,183.32,209.81,183.33h0.48c115.76-0.23,209.78-82.84,209.57-184.14c-0.03-16.19-2.54-32.68-7.47-49.24
		C456.49,125.78,457.99,37.24,417.61,8.94z M400.55,229.54c0,82.87-78.91,150.05-176.25,150.05S48.05,312.41,48.05,229.54
		c0-18.04,3.93-36.19,10.79-53.63c-1.32-1.86-2.66-3.7-3.92-5.65C26,125.37,29.18,51.51,50.21,36.7
		c15.09-10.62,64.81,9.32,97.55,42.47c23.17-11.72,49.07-18.77,76.53-18.77s53.36,7.05,76.53,18.77
		c32.74-33.15,82.46-53.09,97.55-42.47c21.04,14.8,24.21,88.67-4.7,133.56c-1.26,1.95-2.59,3.79-3.92,5.65
		C396.61,193.35,400.55,211.5,400.55,229.54z"/>
	<path class="st0" d="M390.44,47.51c-6.08-4.34-29.91,21.95-53.81,55.14c19.54,16.41,35.35,36.59,46.45,58.42
		C405.55,118.73,406.33,58.84,390.44,47.51z"/>
	<path class="st1" d="M326.41,241.97c-9.3,9.3-13.39,20.27-9.15,24.52c4.24,4.24,15.22,0.15,24.52-9.15
		c9.3-9.3,13.39-20.27,9.15-24.52C346.68,228.58,335.7,232.67,326.41,241.97z"/>
	<path class="st0" d="M330.43,220.93c1.06-2.25,1.89-4.61,2.5-7.08c0.73-2.95,1.22-6,1.22-9.17c0-17.09-15.28-39.8-32.32-48.01
		c-4.12-1.99-8.35-3.15-12.48-3.15c-11.85,0-20.46,9.33-25.76,21.26c-4.2,9.44-6.32,20.52-6.32,29.9
		c0,21.23,17.21,38.44,38.44,38.44C311.11,243.12,324.3,234,330.43,220.93z M290.68,218.51c-0.3,0.66-0.65,1.23-0.99,1.81
		c-1.78,3.04-4.01,4.93-6.47,4.93c-5.76,0-10.42-9.94-10.42-22.2c0-0.21,0.03-0.41,0.03-0.62c0.16-11.97,4.74-21.58,10.4-21.58
		c1.81,0,3.48,1.07,4.97,2.8c3.24,3.77,5.46,11,5.46,19.4C293.64,209.07,292.51,214.51,290.68,218.51z"/>
	<path class="st2" d="M398.38,36.7c-15.09-10.62-64.81,9.32-97.55,42.47c-23.17-11.72-49.07-18.77-76.53-18.77
		s-53.36,7.05-76.53,18.77C115.02,46.03,65.3,26.09,50.21,36.7c-21.04,14.8-24.21,88.67,4.7,133.56c1.26,1.95,2.59,3.79,3.92,5.65
		c-6.86,17.44-10.79,35.59-10.79,53.63c0,82.87,78.91,150.05,176.25,150.05s176.25-67.18,176.25-150.05
		c0-18.04-3.93-36.19-10.79-53.63c1.32-1.86,2.66-3.7,3.92-5.65C422.59,125.37,419.41,51.51,398.38,36.7z M65.51,161.06
		C43.04,118.73,42.26,58.84,58.15,47.51c6.08-4.34,29.91,21.95,53.81,55.14C92.42,119.06,76.61,139.23,65.51,161.06z M131.33,266.48
		c-4.24,4.24-15.22,0.15-24.52-9.15c-9.3-9.3-13.39-20.27-9.15-24.52c4.24-4.24,15.22-0.15,24.52,9.15
		C131.48,251.26,135.58,262.24,131.33,266.48z M152.88,243.12c-15.4,0-28.58-9.11-34.72-22.19c-1.06-2.25-1.89-4.61-2.5-7.08
		c-0.73-2.95-1.22-6-1.22-9.17c0-17.09,15.28-39.8,32.32-48.01c4.12-1.99,8.35-3.15,12.49-3.15c11.85,0,20.46,9.33,25.76,21.26
		c4.2,9.44,6.32,20.52,6.32,29.9C191.32,225.91,174.11,243.12,152.88,243.12z M241.15,292.58c0,9.31-7.55,16.86-16.86,16.86
		c-9.31,0-16.86-7.55-16.86-16.86v-22.62h33.71V292.58z M242.67,220.36l-16.41,15.7c-1.04,1-2.88,1-3.92,0l-16.41-15.7
		c-1.5-1.44-0.3-3.71,1.96-3.71h32.82C242.97,216.65,244.17,218.92,242.67,220.36z M257.27,204.67c0-9.38,2.13-20.45,6.32-29.9
		c5.3-11.93,13.91-21.26,25.76-21.26c4.14,0,8.36,1.16,12.48,3.15c17.04,8.21,32.32,30.92,32.32,48.01c0,3.18-0.5,6.22-1.22,9.17
		c-0.61,2.47-1.44,4.83-2.5,7.08c-6.14,13.07-19.32,22.19-34.72,22.19C274.48,243.12,257.27,225.91,257.27,204.67z M341.77,257.34
		c-9.3,9.3-20.27,13.39-24.52,9.15c-4.24-4.24-0.15-15.22,9.15-24.52c9.3-9.3,20.27-13.39,24.52-9.15
		C355.17,237.07,351.07,248.04,341.77,257.34z M383.08,161.06c-11.1-21.84-26.91-42.01-46.45-58.42
		c23.89-33.19,47.73-59.47,53.81-55.14C406.33,58.84,405.55,118.73,383.08,161.06z"/>
	<path class="st2" d="M165.37,180.85c-1.81,0-3.48,1.07-4.97,2.8c-3.24,3.77-5.46,11-5.46,19.4c0,6.02,1.14,11.47,2.96,15.46
		c0.3,0.66,0.65,1.23,0.99,1.81c1.78,3.04,4.01,4.93,6.47,4.93c5.76,0,10.42-9.94,10.42-22.2c0-0.21-0.03-0.41-0.03-0.62
		C175.61,190.46,171.03,180.85,165.37,180.85z"/>
	<path class="st2" d="M283.22,180.85c-5.66,0-10.24,9.61-10.4,21.58c0,0.21-0.03,0.4-0.03,0.62c0,12.26,4.67,22.2,10.42,22.2
		c2.46,0,4.69-1.89,6.47-4.93c0.34-0.58,0.68-1.15,0.99-1.81c1.83-4,2.96-9.44,2.96-15.46c0-8.41-2.22-15.64-5.46-19.4
		C286.7,181.92,285.03,180.85,283.22,180.85z"/>
</g>
</svg>
